<?xml version="1.0" encoding="iso-8859-1"?>
<!-- Generator: Adobe Illustrator 19.0.0, SVG Export Plug-In . SVG Version: 6.00 Build 0)  -->
<svg version="1.1" id="Layer_1" xmlns="http://www.w3.org/2000/svg" xmlns:xlink="http://www.w3.org/1999/xlink" x="0px" y="0px"
	 viewBox="0 0 512 512" style="enable-background:new 0 0 512 512;" xml:space="preserve">
<g transform="translate(1 1)">
	<g>
		<polygon style="fill:#FFA800;" points="255,314.733 468.333,314.733 468.333,195.267 255,195.267 127,195.267 127,314.733 		"/>
		<path style="fill:#FFA800;" d="M485.4,41.667H280.6c-9.387,0-17.067-7.68-17.067-17.067s7.68-17.067,17.067-17.067h204.8
			c9.387,0,17.067,7.68,17.067,17.067S494.787,41.667,485.4,41.667"/>
	</g>
	<g>
		<path style="fill:#FFFFFF;" d="M229.4,41.667H24.6c-9.387,0-17.067-7.68-17.067-17.067S15.213,7.533,24.6,7.533h204.8
			c9.387,0,17.067,7.68,17.067,17.067S238.787,41.667,229.4,41.667"/>
		<path style="fill:#FFFFFF;" d="M7.533,336.067c0,11.947,22.187,21.333,34.133,21.333v-42.667
			C29.72,314.733,7.533,324.12,7.533,336.067"/>
	</g>
	<g>
		<path style="fill:#FFA800;" d="M255,152.6h-46.933c-11.947,0-21.333,9.387-21.333,21.333c0,11.947,9.387,21.333,21.333,21.333H255
			h226.133c11.947,0,21.333-9.387,21.333-21.333c0-11.947-9.387-21.333-21.333-21.333H255z"/>
		<path style="fill:#FFA800;" d="M255,314.733h-46.933c-11.947,0-21.333,9.387-21.333,21.333s9.387,21.333,21.333,21.333H255
			h226.133c11.947,0,21.333-9.387,21.333-21.333s-9.387-21.333-21.333-21.333H255z"/>
	</g>
	<path style="fill:#FFFFFF;" d="M75.8,152.6H28.867c-11.947,0-21.333,9.387-21.333,21.333c0,11.947,9.387,21.333,21.333,21.333H75.8
		h226.133c11.947,0,21.333-9.387,21.333-21.333c0-11.947-9.387-21.333-21.333-21.333H75.8z"/>
	<g>
		<path style="fill:#FFE100;" d="M459.8,41.667H50.2c-9.387,0-17.067-7.68-17.067-17.067S40.813,7.533,50.2,7.533h409.6
			c9.387,0,17.067,7.68,17.067,17.067S469.187,41.667,459.8,41.667"/>
		<path style="fill:#FFE100;" d="M229.4,314.733H54.467c-11.947,0-21.333,9.387-21.333,21.333S42.52,357.4,54.467,357.4H229.4
			h226.133c11.947,0,21.333-9.387,21.333-21.333s-9.387-21.333-21.333-21.333H229.4z"/>
		<path style="fill:#FFE100;" d="M229.4,152.6H54.467c-11.947,0-21.333,9.387-21.333,21.333c0,11.947,9.387,21.333,21.333,21.333
			H229.4h226.133c11.947,0,21.333-9.387,21.333-21.333c0-11.947-9.387-21.333-21.333-21.333H229.4z"/>
	</g>
	<g>
		<polygon style="fill:#FFA800;" points="41.667,41.667 41.667,152.6 255,152.6 468.333,152.6 468.333,41.667 		"/>
		<polygon style="fill:#FFA800;" points="255,357.4 127,357.4 127,502.467 468.333,502.467 468.333,357.4 		"/>
	</g>
	<g>
		<polygon style="fill:#FFFFFF;" points="169.667,314.733 383,314.733 383,195.267 169.667,195.267 41.667,195.267 41.667,314.733 
					"/>
		<polygon style="fill:#FFFFFF;" points="169.667,357.4 41.667,357.4 41.667,502.467 383,502.467 383,357.4 		"/>
	</g>
	<g>
		<polygon style="fill:#FFE100;" points="41.667,41.667 41.667,152.6 229.4,152.6 442.733,152.6 442.733,41.667 		"/>
		<polygon style="fill:#FFE100;" points="229.4,314.733 442.733,314.733 442.733,195.267 229.4,195.267 67.267,195.267 
			67.267,314.733 		"/>
		<polygon style="fill:#FFE100;" points="229.4,357.4 67.267,357.4 67.267,502.467 442.733,502.467 442.733,357.4 		"/>
	</g>
	<g>
		<polygon style="fill:#3DB9F9;" points="212.333,502.467 297.667,502.467 297.667,400.067 212.333,400.067 		"/>
		<path style="fill:#3DB9F9;" d="M169.667,314.733H84.333v-25.6c0-23.893,18.773-42.667,42.667-42.667s42.667,18.773,42.667,42.667
			V314.733z"/>
		<path style="fill:#3DB9F9;" d="M297.667,314.733h-85.333v-25.6c0-23.893,18.773-42.667,42.667-42.667s42.667,18.773,42.667,42.667
			V314.733z"/>
		<path style="fill:#3DB9F9;" d="M425.667,314.733h-85.333v-25.6c0-23.893,18.773-42.667,42.667-42.667
			c23.893,0,42.667,18.773,42.667,42.667V314.733z"/>
	</g>
	<g>
		<path style="fill:#63D3FD;" d="M400.067,314.733h-59.733v-25.6c0-23.893,10.24-42.667,34.133-42.667l0,0
			c23.893,0,25.6,18.773,25.6,42.667V314.733z"/>
		<path style="fill:#63D3FD;" d="M272.067,314.733h-59.733v-25.6c0-23.893,10.24-42.667,34.133-42.667s25.6,18.773,25.6,42.667
			V314.733z"/>
		<path style="fill:#63D3FD;" d="M144.067,314.733H84.333v-25.6c0-23.893,10.24-42.667,34.133-42.667l0,0
			c23.893,0,25.6,18.773,25.6,42.667V314.733z"/>
	</g>
	<g>
		<path style="fill:#3DB9F9;" d="M169.667,152.6H84.333V127c0-23.893,18.773-42.667,42.667-42.667s42.667,18.773,42.667,42.667
			V152.6z"/>
		<path style="fill:#3DB9F9;" d="M297.667,152.6h-85.333V127c0-23.893,18.773-42.667,42.667-42.667s42.667,18.773,42.667,42.667
			V152.6z"/>
		<path style="fill:#3DB9F9;" d="M425.667,152.6h-85.333V127c0-23.893,18.773-42.667,42.667-42.667
			c23.893,0,42.667,18.773,42.667,42.667V152.6z"/>
	</g>
	<g>
		<path style="fill:#63D3FD;" d="M400.067,152.6h-59.733V127c0-23.893,10.24-42.667,34.133-42.667l0,0
			c23.893,0,25.6,18.773,25.6,42.667V152.6z"/>
		<path style="fill:#63D3FD;" d="M272.067,152.6h-59.733V127c0-23.893,10.24-42.667,34.133-42.667s25.6,18.773,25.6,42.667V152.6z"
			/>
		<path style="fill:#63D3FD;" d="M144.067,152.6H84.333V127c0-23.893,10.24-42.667,34.133-42.667l0,0
			c23.893,0,25.6,18.773,25.6,42.667V152.6z"/>
		<polygon style="fill:#63D3FD;" points="212.333,502.467 272.067,502.467 272.067,400.067 212.333,400.067 		"/>
	</g>
	<polygon style="fill:#3DB9F9;" points="340.333,451.267 425.667,451.267 425.667,400.067 340.333,400.067 	"/>
	<polygon style="fill:#63D3FD;" points="340.333,451.267 400.067,451.267 400.067,400.067 340.333,400.067 	"/>
	<polygon style="fill:#3DB9F9;" points="84.333,451.267 169.667,451.267 169.667,400.067 84.333,400.067 	"/>
	<polygon style="fill:#63D3FD;" points="84.333,451.267 144.067,451.267 144.067,400.067 84.333,400.067 	"/>
	<path d="M485.4,50.2H24.6C10.093,50.2-1,39.107-1,24.6S10.093-1,24.6-1h460.8C499.907-1,511,10.093,511,24.6
		S499.907,50.2,485.4,50.2z M24.6,16.067c-5.12,0-8.533,3.413-8.533,8.533s3.413,8.533,8.533,8.533h460.8
		c5.12,0,8.533-3.413,8.533-8.533s-3.413-8.533-8.533-8.533H24.6z"/>
	<path d="M481.133,365.933H28.867C12.653,365.933-1,352.28-1,336.067S12.653,306.2,28.867,306.2h452.267
		c16.213,0,29.867,13.653,29.867,29.867S497.347,365.933,481.133,365.933z M28.867,323.267c-6.827,0-12.8,5.973-12.8,12.8
		s5.973,12.8,12.8,12.8h452.267c6.827,0,12.8-5.973,12.8-12.8s-5.973-12.8-12.8-12.8H28.867z"/>
	<path d="M169.667,323.267H84.333c-5.12,0-8.533-3.413-8.533-8.533v-25.6c0-28.16,23.04-51.2,51.2-51.2s51.2,23.04,51.2,51.2v25.6
		C178.2,319.853,174.787,323.267,169.667,323.267z M92.867,306.2h68.267v-17.067C161.133,270.36,145.773,255,127,255
		s-34.133,15.36-34.133,34.133V306.2z"/>
	<path d="M297.667,323.267h-85.333c-5.12,0-8.533-3.413-8.533-8.533v-25.6c0-28.16,23.04-51.2,51.2-51.2s51.2,23.04,51.2,51.2v25.6
		C306.2,319.853,302.787,323.267,297.667,323.267z M220.867,306.2h68.267v-17.067C289.133,270.36,273.773,255,255,255
		s-34.133,15.36-34.133,34.133V306.2z"/>
	<path d="M425.667,323.267h-85.333c-5.12,0-8.533-3.413-8.533-8.533v-25.6c0-28.16,23.04-51.2,51.2-51.2
		c28.16,0,51.2,23.04,51.2,51.2v25.6C434.2,319.853,430.787,323.267,425.667,323.267z M348.867,306.2h68.267v-17.067
		C417.133,270.36,401.773,255,383,255c-18.773,0-34.133,15.36-34.133,34.133V306.2z"/>
	<path d="M481.133,203.8H28.867C12.653,203.8-1,190.147-1,173.933s13.653-29.867,29.867-29.867h452.267
		c16.213,0,29.867,13.653,29.867,29.867S497.347,203.8,481.133,203.8z M28.867,161.133c-6.827,0-12.8,5.973-12.8,12.8
		s5.973,12.8,12.8,12.8h452.267c6.827,0,12.8-5.973,12.8-12.8s-5.973-12.8-12.8-12.8H28.867z"/>
	<path d="M169.667,161.133H84.333c-5.12,0-8.533-3.413-8.533-8.533V127c0-28.16,23.04-51.2,51.2-51.2s51.2,23.04,51.2,51.2v25.6
		C178.2,157.72,174.787,161.133,169.667,161.133z M92.867,144.067h68.267V127c0-18.773-15.36-34.133-34.133-34.133
		S92.867,108.227,92.867,127V144.067z"/>
	<path d="M297.667,161.133h-85.333c-5.12,0-8.533-3.413-8.533-8.533V127c0-28.16,23.04-51.2,51.2-51.2s51.2,23.04,51.2,51.2v25.6
		C306.2,157.72,302.787,161.133,297.667,161.133z M220.867,144.067h68.267V127c0-18.773-15.36-34.133-34.133-34.133
		s-34.133,15.36-34.133,34.133V144.067z"/>
	<path d="M425.667,161.133h-85.333c-5.12,0-8.533-3.413-8.533-8.533V127c0-28.16,23.04-51.2,51.2-51.2c28.16,0,51.2,23.04,51.2,51.2
		v25.6C434.2,157.72,430.787,161.133,425.667,161.133z M348.867,144.067h68.267V127c0-18.773-15.36-34.133-34.133-34.133
		c-18.773,0-34.133,15.36-34.133,34.133V144.067z"/>
	<path d="M297.667,511h-85.333c-5.12,0-8.533-3.413-8.533-8.533v-102.4c0-5.12,3.413-8.533,8.533-8.533h85.333
		c5.12,0,8.533,3.413,8.533,8.533v102.4C306.2,507.587,302.787,511,297.667,511z M220.867,493.933h68.267V408.6h-68.267V493.933z"/>
	<path d="M468.333,161.133H41.667c-5.12,0-8.533-3.413-8.533-8.533V41.667c0-5.12,3.413-8.533,8.533-8.533h426.667
		c5.12,0,8.533,3.413,8.533,8.533V152.6C476.867,157.72,473.453,161.133,468.333,161.133z M50.2,144.067h409.6V50.2H50.2V144.067z"
		/>
	<path d="M468.333,511H41.667c-5.12,0-8.533-3.413-8.533-8.533V357.4c0-5.12,3.413-8.533,8.533-8.533h426.667
		c5.12,0,8.533,3.413,8.533,8.533v145.067C476.867,507.587,473.453,511,468.333,511z M50.2,493.933h409.6v-128H50.2V493.933z"/>
	<path d="M468.333,323.267H41.667c-5.12,0-8.533-3.413-8.533-8.533V195.267c0-5.12,3.413-8.533,8.533-8.533h426.667
		c5.12,0,8.533,3.413,8.533,8.533v119.467C476.867,319.853,473.453,323.267,468.333,323.267z M50.2,306.2h409.6V203.8H50.2V306.2z"
		/>
	<path d="M169.667,459.8H84.333c-5.12,0-8.533-3.413-8.533-8.533v-51.2c0-5.12,3.413-8.533,8.533-8.533h85.333
		c5.12,0,8.533,3.413,8.533,8.533v51.2C178.2,456.387,174.787,459.8,169.667,459.8z M92.867,442.733h68.267V408.6H92.867V442.733z"
		/>
	<path d="M425.667,459.8h-85.333c-5.12,0-8.533-3.413-8.533-8.533v-51.2c0-5.12,3.413-8.533,8.533-8.533h85.333
		c5.12,0,8.533,3.413,8.533,8.533v51.2C434.2,456.387,430.787,459.8,425.667,459.8z M348.867,442.733h68.267V408.6h-68.267V442.733z
		"/>
</g>
<g>
</g>
<g>
</g>
<g>
</g>
<g>
</g>
<g>
</g>
<g>
</g>
<g>
</g>
<g>
</g>
<g>
</g>
<g>
</g>
<g>
</g>
<g>
</g>
<g>
</g>
<g>
</g>
<g>
</g>
</svg>
